<svg id="组_1" data-name="组 1" xmlns="http://www.w3.org/2000/svg" viewBox="0 0 20 20"><defs><style>.cls-1{fill:#f83031;}</style></defs><title>爆破</title><polygon class="cls-1" points="4.41 18 2 15.59 2 4.41 4.41 2 15.59 2 18 4.41 18 15.59 15.59 18 4.41 18"/><path d="M15.17,3,17,4.83V15.17L15.17,17H4.83L3,15.17V4.83L4.83,3H15.17M16,1H4L1,4V16l3,3H16l3-3V4L16,1Z"/><path d="M15.72,10.28l-2.5.23V7.9c0-.27-.23-.42-.43-.27L11.25,8.86l-.73-4.6a.26.26,0,0,0-.5-.08L8.47,8.32l-2.39-2c-.23-.15-.46.08-.42.35l.73,4-2,.53c-.24,0-.27.39-.12.54L5.7,13.2,4.39,14.43H6.82l.69-.66-1-1,1.34-.35L7.43,9.82,9,11.16l1-2.72.46,3,1-.84v1.69l1.74-.08-1.43,1.69.73.54h2.58l-1.38-1L16,10.82c.12-.19,0-.58-.23-.54ZM4,16"/></svg>