<svg id="组_1" data-name="组 1" xmlns="http://www.w3.org/2000/svg" viewBox="0 0 20 20"><defs><style>.cls-1{fill:#ffe000;}</style></defs><title>边坡防护</title><polygon class="cls-1" points="4.41 18 2 15.59 2 4.41 4.41 2 15.59 2 18 4.41 18 15.59 15.59 18 4.41 18"/><path d="M15.17,3,17,4.83V15.17L15.17,17H4.83L3,15.17V4.83L4.83,3H15.17M16,1H4L1,4V16l3,3H16l3-3V4L16,1Z"/><polygon points="15 16 6 16 4 14 4 5 10 11 15 16"/><polygon points="6.32 5.95 4.74 4.37 6.95 4.68 6.32 5.95 6.32 5.95"/><polygon points="8.58 6.04 10.39 7.14 9.3 8.96 7.12 6.41 8.58 6.04"/><polygon points="13.48 10.07 12.66 11.77 10.52 9.69 11.34 7.99 13.04 8.81 13.48 10.07"/></svg>