<svg viewBox="0 0 12 12" xmlns:xlink="http://www.w3.org/1999/xlink" xmlns="http://www.w3.org/2000/svg" id="卡车_拷贝"><defs><style>.cls-1{fill:url(#未命名的渐变_4);}</style><linearGradient gradientUnits="userSpaceOnUse" gradientTransform="matrix(1, 0, 0, -1, 0, 14)" y2="13.49" x2="6" y1="3.51" x1="6" id="未命名的渐变_4"><stop stop-color="#0f68ff" offset="0"></stop><stop stop-color="#6bd0ff" offset="1"></stop></linearGradient></defs><title>待接管</title><path d="M11.37,2.75l-.13-.13a7.4,7.4,0,0,0-10.46.1l0,0a.87.87,0,0,0-.24.5.42.42,0,0,0,.1.37l1,1a.71.71,0,0,0,.49.12c.12.13.24,0,.31,0s.11.09.21.23h0a.75.75,0,0,0-.16.5c0,.25,0,.38.13.5l1,1A.76.76,0,0,0,4,7.12c.09,0,.25.23.42.5a1.88,1.88,0,0,0-.29,1,1.83,1.83,0,1,0,3.66,0h0a1.89,1.89,0,0,0-.32-1.06A2,2,0,0,1,8,7.13,1,1,0,0,0,8.42,7l1-1a.74.74,0,0,0,.13-.5.79.79,0,0,0-.06-.22c.16-.19.31-.39.4-.4.25,0,.37,0,.49-.13l1-1a.74.74,0,0,0,.12-.5C11.49,3,11.49,2.87,11.37,2.75Z" class="cls-1"></path><path d="M8,7.64a1.43,1.43,0,0,1-.41-.09H7.22l-.11-.14A1.73,1.73,0,0,0,6,6.89a1.51,1.51,0,0,0-1.11.48A1.08,1.08,0,0,1,4,7.64a1.17,1.17,0,0,1-.84-.27l-1-1A1.09,1.09,0,0,1,2,5.51a1.27,1.27,0,0,1,.27-.86,5.28,5.28,0,0,1,7.43,0,1.19,1.19,0,0,1,.4.86,1.27,1.27,0,0,1-.27.86L8.67,7.46A1.29,1.29,0,0,1,8,7.64ZM3,5.37v.34l1,.94h.33A2.33,2.33,0,0,1,6,5.87a2.73,2.73,0,0,1,1.7.66l.17.06H8a.25.25,0,0,0,.17,0l.92-.93V5.52L9,5.39a4.26,4.26,0,0,0-6,0Z"></path><path d="M9.91,5.37a1.12,1.12,0,0,1-.84-.27A4.33,4.33,0,0,0,3,5l-.14.14-.15.15H2.45a.65.65,0,0,1-.51,0A.92.92,0,0,1,1.26,5l-1-1A1,1,0,0,1,0,3.25a1.41,1.41,0,0,1,.4-.86,7.9,7.9,0,0,1,11.17-.15h0l.14.14a1,1,0,0,1,.27.86,1.17,1.17,0,0,1-.27.86l-1,1A1,1,0,0,1,9.91,5.37Zm-4-2.63A5.37,5.37,0,0,1,9.78,4.38h.33l.91-1V3.24A.65.65,0,0,0,11,3,7,7,0,0,0,6,1,6.84,6.84,0,0,0,1,3.09a.36.36,0,0,0-.06.2l1,1h.3a5.35,5.35,0,0,1,3.7-1.55Z"></path><path d="M6,11A2.38,2.38,0,1,1,8.33,8.57h0A2.37,2.37,0,0,1,6,11ZM6,7.27A1.36,1.36,0,1,0,7.33,8.66h0A1.35,1.35,0,0,0,6,7.27Z"></path></svg>