<svg id="组_6" data-name="组 6" xmlns="http://www.w3.org/2000/svg" xmlns:xlink="http://www.w3.org/1999/xlink" viewBox="0 0 20 20"><defs><style>.cls-1{fill:url(#未命名的渐变_31);}.cls-2{fill:#ffd0a9;}.cls-3{fill:#ffddb8;}.cls-3,.cls-4,.cls-5,.cls-6{fill-rule:evenodd;}.cls-4,.cls-6{fill:#d18f26;}.cls-4{opacity:0.31;}.cls-5{fill:url(#未命名的渐变_73);}.cls-6{opacity:0.5;}</style><linearGradient id="未命名的渐变_31" x1="10" y1="18" x2="10" y2="13" gradientUnits="userSpaceOnUse"><stop offset="0" stop-color="#536ba6"/><stop offset="1" stop-color="#7b9ded"/></linearGradient><linearGradient id="未命名的渐变_73" x1="9.99" y1="8.99" x2="9.99" y2="2" gradientUnits="userSpaceOnUse"><stop offset="0" stop-color="#ffae00"/><stop offset="1" stop-color="#ffe466"/></linearGradient></defs><title>工人-01</title><path d="M2,19V16a4,4,0,0,1,4-4h.08a4.56,4.56,0,0,1-.62-1.15A2.6,2.6,0,0,1,4,8.2l-.09-.1L4,7.65a7.93,7.93,0,0,1,.33-1.36A4.71,4.71,0,0,1,7.5,2L7.64,2c.27-.1.54-.18.79-.25a2.16,2.16,0,0,1,.79-.58,2,2,0,0,1,2.32.58,8.48,8.48,0,0,1,.82.26l.14.06a4.67,4.67,0,0,1,3.14,4.21A8.29,8.29,0,0,1,16,7.65l.07.45L16,8.18a2.62,2.62,0,0,1-1.43,2.67A5.3,5.3,0,0,1,13.93,12H14a4,4,0,0,1,4,4v3Z"/><path id="圆角矩形_2" data-name="圆角矩形 2" class="cls-1" d="M6,13h8a3,3,0,0,1,3,3v2H3V16A3,3,0,0,1,6,13Z"/><path class="cls-2" d="M8,11v3a2,2,0,0,0,4,0V11Z"/><path id="椭圆_1" data-name="椭圆 1" class="cls-3" d="M14,10a.68.68,0,0,1-.23-.07,3.85,3.85,0,0,1-7.54,0A.68.68,0,0,1,6,10,1.62,1.62,0,0,1,6,7a.68.68,0,0,1,.23.07,3.85,3.85,0,0,1,7.54,0A.68.68,0,0,1,14,7a1.62,1.62,0,0,1,0,3Z"/><path id="形状_1" data-name="形状 1" class="cls-4" d="M14.65,7c0-2.07-1.5-3.5-3.72-3.89a1,1,0,0,0-1.32-.55,1,1,0,0,0-.55.55C6.84,3.51,5.34,4.94,5.34,7A7,7,0,0,0,5,8.36c1,1.19,2.79,1.19,5,1.19s4,0,5-1.19A7,7,0,0,0,14.66,7h0Z"/><path id="形状_1-2" data-name="形状 1" class="cls-5" d="M14.64,6.47c0-2-1.5-3.47-3.73-3.85A1,1,0,0,0,9.6,2.08a1,1,0,0,0-.55.54C6.83,3,5.33,4.42,5.33,6.47A6.83,6.83,0,0,0,5,7.8C6,9,7.78,9,10,9s4,0,5-1.19a6.83,6.83,0,0,0-.34-1.33h0Z"/><path id="圆角矩形_1" data-name="圆角矩形 1" class="cls-6" d="M8,7A1,1,0,0,1,7,6V3.41a5.38,5.38,0,0,1,1.93-.76A1,1,0,0,1,9,3V6A1,1,0,0,1,8,7Zm4,0a1,1,0,0,1-1-1V3a1,1,0,0,1,.07-.34A5.4,5.4,0,0,1,13,3.43V6A1,1,0,0,1,12,7Z"/></svg>