<svg xmlns="http://www.w3.org/2000/svg" width="12" height="12" viewBox="0 0 12 12">
  <defs>
    <style>
      .cls-1 {
        fill: #fff;
        fill-rule: evenodd;
      }
    </style>
  </defs>
  <path id="新接管" class="cls-1" d="M282,670h-5a1.993,1.993,0,0,1-1.75-1.05A0.943,0.943,0,0,1,274,668v-2a1,1,0,0,1,1-1,0.981,0.981,0,0,1,.8.43,2.116,2.116,0,0,1,.2-0.153V661a1,1,0,0,1,2,0v3a2.236,2.236,0,0,0,3-1,1,1,0,0,1,1,1v1a1,1,0,0,1,2,0v3A2,2,0,0,1,282,670Z" transform="translate(-273 -659)"/>
</svg>
