<svg id="卡车_拷贝" data-name="卡车 拷贝" xmlns="http://www.w3.org/2000/svg" viewBox="0 0 20 20"><defs><style>.cls-1{fill:#3f3935;}.cls-2{fill:#5b514c;}.cls-3{fill:#af850e;}.cls-4{fill:#edd69d;}</style></defs><title>矿</title><polygon class="cls-1" points="14 18 13 17.91 11 19 9 17.91 8 18 7 17.91 6 19 6 7 7 8.09 8 8.09 9 7 11 7 12 8.09 14 7 14 18"/><polygon class="cls-2" points="13 17 12.25 16.18 10.75 17 9.25 16.18 8.88 17 7.75 16.18 7 17 7 8 7.75 8.82 8.5 8.82 9.25 8 10.75 8 11.5 8.82 13 8 13 17"/><rect class="cls-3" x="9" y="10" width="1" height="1" rx="0.2"/><rect class="cls-3" x="11" y="14" width="1" height="1" rx="0.2"/><rect class="cls-3" x="12" y="11" width="1" height="1" rx="0.2"/><rect class="cls-4" x="10" y="12" width="1" height="1" rx="0.2"/><rect class="cls-4" x="12" y="16" width="1" height="1" rx="0.2"/><rect class="cls-4" x="7" y="15" width="1" height="1" rx="0.2"/><rect class="cls-4" x="6" y="11" width="1" height="1" rx="0.2"/><rect class="cls-1" x="8" y="13" width="1" height="1" rx="0.2"/><rect class="cls-1" x="9" y="15" width="1" height="1" rx="0.2"/><rect class="cls-1" x="11" y="9" width="1" height="1" rx="0.2"/><rect class="cls-1" x="7" y="9" width="1" height="1" rx="0.2"/><rect class="cls-1" x="9" y="8" width="1" height="1" rx="0.2"/></svg>