<svg id="组_43" data-name="组 43" xmlns="http://www.w3.org/2000/svg" width="326" height="34" viewBox="0 0 326 34">
  <defs>
    <style>
      .cls-1 {
        fill: #fff;
      }

      .cls-1, .cls-2 {
        fill-rule: evenodd;
      }

      .cls-2 {
        fill: #ff5900;
      }
    </style>
  </defs>
  <path id="智慧矿山无人驾驶管理平台" class="cls-1" d="M575.709,394.915h14.557a2.2,2.2,0,0,0,1.015-.247,2.785,2.785,0,0,0,.847-0.667,3.128,3.128,0,0,0,.568-0.988,4.061,4.061,0,0,0,.23-1.235v-4.865H572.275v8h3.434Zm0-5.822h13.71v0.991h-13.71v-0.991Zm0,2.675h13.71v0.049a1,1,0,0,1-.217.652,0.688,0.688,0,0,1-.556.265H575.709v-0.966Zm7.907-14.468v8.968h6.94a2.584,2.584,0,0,0,1.04-.21,2.658,2.658,0,0,0,.846-0.582,2.722,2.722,0,0,0,.568-0.867,2.759,2.759,0,0,0,.206-1.066v-6.466h-9.6V377.3Zm6.239,5.748a0.751,0.751,0,0,1-.218.545,0.718,0.718,0,0,1-.532.223h-2.128V379.53h2.878v3.518Zm-13.929,3.22,2.128-1.882,1.548,1.882h3.361l-2.1-2.527h1.79v-2.452h-3.144V380.4h3v-2.453h-6.336l0.29-.867h-3.337l-1.136,3.32h4.159v0.892h-4.159v2.452h2.9l-2.853,2.527h3.893Zm39.319,1.908v-3.642h-19.78v1.536H611.98v0.867H595.465v1.338H611.98v0.52a0.346,0.346,0,0,1-.386.4H595.465v1.313h17.507a2.162,2.162,0,0,0,1.572-.644,2.322,2.322,0,0,0,.7-1.586v-0.1Zm-17-10.554h-3.313v1.313h3.313V379.8h-3.313v1.313h3.313v0.867h-3.313V383.3h3.313v0.619h3.264V383.3h3.313v-1.314H601.51v-0.867h3.313V379.8H601.51v-0.867h3.313v-1.313H601.51v-0.57h-3.264v0.57Zm10.929-.57v0.57h-3.312v1.313h3.312V379.8h-3.312v1.313h3.312v0.867h-3.312V383.3h3.312v0.619h3.265V383.3h3.313v-1.314H612.44v-0.867h3.313V379.8H612.44v-0.867h3.313v-1.313H612.44v-0.57h-3.265ZM597.98,394.939l0.8-3.3h-3.264l-0.8,3.3h3.265Zm13.976-3.3,0.774,3.3h3.192l-0.774-3.3h-3.192Zm-3.192-.445h-3.433l0.628,1.734h3.434Zm-5.658,0h-3.555v2.3a1.442,1.442,0,0,0,.085.471,1.449,1.449,0,0,0,.762.83,1.635,1.635,0,0,0,.7.136h10.3l0.556-1.461h-8.487a0.9,0.9,0,0,1-.23-0.037,0.278,0.278,0,0,1-.133-0.31V391.2Zm31.532-14.147h-2.9l0.386,1.413h-4.328v13.923l-1.088,2.527h3.361l1.088-2.527V380.917h7.521v-2.452H635Zm-7.109,2.453v-2.453H617.445v2.453h1.234l-1.234,8.027h1.04v7.383h5.32a2.568,2.568,0,0,0,1.04-.211,2.642,2.642,0,0,0,.846-0.582,2.742,2.742,0,0,0,.569-0.867,2.769,2.769,0,0,0,.205-1.066V380.645h-4.619l0.17-1.14h5.513Zm-4.159,12.189a0.751,0.751,0,0,1-.218.545,0.713,0.713,0,0,1-.532.223h-1.04V383.1h1.79v8.6Zm25.777,3.022h10.4a1.726,1.726,0,0,0,1.282-.545,1.814,1.814,0,0,0,.532-1.313V379.505h-3.265v12.387a0.52,0.52,0,0,1-.145.359,0.467,0.467,0,0,1-.363.161h-5.2V377.251h-3.24v15.161H643.44V379.505H640.2v15.211h8.947Zm17.314,0.149L670.4,386h5.151v6.416a2.418,2.418,0,0,0,.7,1.759,2.3,2.3,0,0,0,1.717.719h5.054l1.064-2.3h-4.425a0.713,0.713,0,0,1-.532-0.223,0.751,0.751,0,0,1-.218-0.545V386h5.175v-2.552H671.563l1.717-3.815h9.987v-2.552H663.752v2.552h6l-1.716,3.815h-5.1V386H666.9l-3.966,8.869h3.531Zm29.888-8.423,6.118,8.473h4.376L699.71,385.4h-2.587l1.209-1.56v-6.789h-3.918v6.516l-8.753,11.347h4.231Zm33.225-8.77h-9.721v6.565h7.085a2.513,2.513,0,0,0,1.016-.211,2.642,2.642,0,0,0,.846-0.582,2.711,2.711,0,0,0,.568-0.867,2.75,2.75,0,0,0,.206-1.065v-3.84Zm-2.974,3.865a0.753,0.753,0,0,1-.218.545,0.718,0.718,0,0,1-.532.223h-3v-2.7H726.6v1.933Zm-16.54,5.6-1.306,3.171h17.725v2.675a0.347,0.347,0,0,1-.387.4h-0.75l-0.725,1.536H727.3a2.168,2.168,0,0,0,.882-0.186,2.288,2.288,0,0,0,.726-0.5,2.357,2.357,0,0,0,.483-0.731,2.222,2.222,0,0,0,.182-0.891V388.4h-0.967v-1.536a1.983,1.983,0,0,0-.581-1.437,1.888,1.888,0,0,0-1.4-.594H709.165v1.907h15.863a0.6,0.6,0,0,1,.447.186,0.631,0.631,0,0,1,.181.458V388.4h-13.2l0.484-1.263H710.06Zm-1.524,5.821h16.516V391.05l-16.516-.025v1.932Zm0-8.646h2.926l1.209-4.831h3.458v2.626a0.529,0.529,0,0,1-.157.384,0.5,0.5,0,0,1-.375.161h-1.209l-0.75,1.735h3.531a1.755,1.755,0,0,0,1.318-.57,1.907,1.907,0,0,0,.544-1.363v-4.682h-5.925l0.17-.743H710.35l-0.17.743h-1.789v1.709h1.354Zm39.391-7.234H745.2V377.9H740.77V388.3h4.014l-0.871,1.536-3.143-.966v2.5l1.934,0.594-1.692,2.924h3.071l1.233-2.131,7.037,2.131v-2.478l-5.828-1.783,1.33-2.329h1.862a2.505,2.505,0,0,0,1.015-.211,2.635,2.635,0,0,0,.847-0.582,2.711,2.711,0,0,0,.568-0.867,2.75,2.75,0,0,0,.206-1.065V377.9h-4.426v-0.818Zm-4.3,3H745.2v6.045h-1.572v-6.045Zm5.876,0v5.274a0.755,0.755,0,0,1-.217.547,0.746,0.746,0,0,1-.557.224h-0.8v-6.045H749.5Zm-13.275,9.315h-5.151v2.031h5.151V389.39Zm-4.667-12.313v2.032h4.57a0.6,0.6,0,0,1,.447.186,0.628,0.628,0,0,1,.182.458V385.3H734.7l1.379-4.682h-2.9l-2.031,6.725,6.287-.011v5.175a0.633,0.633,0,0,1-.182.46,0.6,0.6,0,0,1-.447.187h-1.548l-0.773,1.734h3.53a2.217,2.217,0,0,0,.871-0.174,2.143,2.143,0,0,0,.713-0.483,2.243,2.243,0,0,0,.471-0.718,2.277,2.277,0,0,0,.17-0.88V385.3h-0.677v-5.97a2.248,2.248,0,0,0-.647-1.6,2.191,2.191,0,0,0-.707-0.483,2.158,2.158,0,0,0-.866-0.174h-5.784Zm34.53,4.707-0.362-.669h-3.652l0.363,0.669h-8.608v3.1h1.862v10.034h15.79a1.867,1.867,0,0,0,.737-0.149,1.822,1.822,0,0,0,.605-0.409,1.92,1.92,0,0,0,.544-1.35v-2.9H758.978v-0.867h12.5a1.792,1.792,0,0,0,1.33-.569,1.882,1.882,0,0,0,.556-1.363v-2.428h1.693v-0.446a2.6,2.6,0,0,0-.206-1.028,2.818,2.818,0,0,0-.544-0.842,2.494,2.494,0,0,0-.81-0.57,2.438,2.438,0,0,0-1-.211h-6.409Zm3.99,10.182v0.744a0.346,0.346,0,0,1-.386.4H758.978v-1.14h11.1Zm-7.327-8.522h8.367a0.6,0.6,0,0,1,.448.186,0.635,0.635,0,0,1,.181.458v0.322H757.14v-0.966h5.61Zm7.327,3.568a0.346,0.346,0,0,1-.386.4H758.978v-1.164h11.1v0.768Zm-6.142-9.241H758.47l0.315-.694h-3.313l-1.644,3.568h3.337l0.532-1.19h1.16l0.653,1.19h2.805l-0.628-1.19h2.248v-1.684Zm2.3-.694-1.645,3.568h3.337l0.532-1.19h1.161l0.653,1.19H773.1l-0.653-1.19H774.7v-1.684h-5.465l0.339-.694h-3.337Zm31.508,15.856h-4.619v-2.28h4.425v-2.081h-4.425v-1.61h1.886a2.584,2.584,0,0,0,1.04-.21,2.65,2.65,0,0,0,.846-0.583,2.719,2.719,0,0,0,.569-0.867,2.768,2.768,0,0,0,.205-1.065V377H785.215v9.959h4.546v1.61h-4.449v2.081h4.449v2.28h-4.619v2.031h12.6v-2.031Zm-3.168-8.8a0.784,0.784,0,0,1-.218.57,0.717,0.717,0,0,1-.532.223h-0.7v-1.982h1.451v1.189Zm0-3.221h-1.451v-1.883h1.451v1.883Zm-4.812-1.883v1.883H788.31v-1.883h1.451Zm-1.451,5.9v-1.982h1.451v1.982H788.31Zm-11.728-5.426h2.2v4.559h-1.959v2.452h1.959v6.02h-2.2v2.453h7.762v-2.453h-2.2v-6.02h1.983v-2.452h-1.983v-4.559h2.2v-2.453h-7.762v2.453Zm40.5,7.408,1.4-6.194h-2.9l-1.4,6.194h2.9Zm-12.526-6.194h-2.9l1.306,6.194h2.9Zm15.959,8.937v-1.8H811.6v-8.3h8.125V377.1H800.086v2.453h8.149v8.3h-8.947v2.453h8.947v4.558H811.6v-4.558h8.922v-0.651Zm21.836-1.4v-2.435H822.647v8.944h17.435a2.176,2.176,0,0,0,.883-0.186,2.286,2.286,0,0,0,.725-0.5,2.381,2.381,0,0,0,.484-0.733,2.3,2.3,0,0,0,.181-0.919v-4.174Zm-3.53,3.313a0.782,0.782,0,0,1-.218.57,0.714,0.714,0,0,1-.532.223h-11.9v-4.088h12.647v3.3Zm-15.6-6.912h16.225l0.339,0.57h3.216l-4.111-7.061h-3.24l2.37,4.038H827.194l3.143-5h-3.41l-4.666,7.457h0.967Z" transform="translate(-517 -369)"/>
  <path id="形状_1_拷贝_2" data-name="形状 1 拷贝 2" class="cls-1" d="M517,378.68v7.071L523,389v-7Zm5.92,17.769L523,389l6-3.58V400ZM546,397l-6-4v-8l-5-3v14l11,7v-6Zm7.991-9.115L554,393.323,548,397v6l11.024-6.97L559,384.954Z" transform="translate(-517 -369)"/>
  <path id="形状_1" data-name="形状 1" class="cls-2" d="M533.024,369L517,378.83l5.92,3.293,16-9.58ZM540,385l10-6-5-3-10,6Zm6.966,0.9,7.091-4.235L559,385l-7,4Z" transform="translate(-517 -369)"/>
</svg>
