<svg viewBox="0 0 20 20" xmlns="http://www.w3.org/2000/svg" id="卡车_拷贝"><defs><style>.cls-1{fill:#2f3343;}.cls-2{fill:#828282;}.cls-3{fill:#bfbfbf;}.cls-4{fill:#e5e5e5;}.cls-5{fill:#9e9e9e;}.cls-6{fill:#939393;}.cls-7{fill:#fff;}</style></defs><title>辅助车辆离线</title><path d="M5.5,3h-1a.44.44,0,0,0-.5.33H4V6.66A.44.44,0,0,0,4.5,7h1A.44.44,0,0,0,6,6.67H6V3.34A.44.44,0,0,0,5.5,3Z" class="cls-1"></path><path d="M15.5,3h-1a.44.44,0,0,0-.5.33h0V6.66a.44.44,0,0,0,.5.34h1a.44.44,0,0,0,.5-.33h0V3.34A.44.44,0,0,0,15.5,3Z" class="cls-1"></path><path d="M15.5,12h-1a.46.46,0,0,0-.5.42h0v4.16a.46.46,0,0,0,.5.42h1a.46.46,0,0,0,.5-.42h0V12.42a.46.46,0,0,0-.5-.42Z" class="cls-1"></path><path d="M5.5,12h-1a.46.46,0,0,0-.5.42H4v4.16a.46.46,0,0,0,.5.42h1a.46.46,0,0,0,.5-.42H6V12.42A.46.46,0,0,0,5.5,12Z" class="cls-1"></path><path d="M14.5,7a.48.48,0,0,1,.5.46h0v11a.63.63,0,0,1-.7.53H5.7a.63.63,0,0,1-.7-.53v-11A.48.48,0,0,1,5.5,7h9Z" class="cls-2" id="矩形_765"></path><path d="M6.41,1h7.18A1.41,1.41,0,0,1,15,2.41V6.27a.73.73,0,0,1-.73.73H5.73A.73.73,0,0,1,5,6.27V2.41A1.41,1.41,0,0,1,6.41,1Z" class="cls-3"></path><path d="M7.57,3h4.86a.58.58,0,0,1,.57.57V7H7V3.57A.58.58,0,0,1,7.57,3Z" class="cls-4"></path><path d="M6.69,2h6.62c.51,0,.84.24.62.45l-.42.38a1,1,0,0,1-.62.17H7.11a1,1,0,0,1-.62-.17l-.42-.38C5.85,2.24,6.18,2,6.69,2Z" class="cls-5"></path><path d="M6,6.2V3.3c0-.22.17-.26.38-.06,0,0,.62.46.62.58V6a.3.3,0,0,1-.17.26l-.38.19A.31.31,0,0,1,6,6.32.27.27,0,0,1,6,6.2Z" class="cls-5"></path><path d="M14,6.2V3.3c0-.22-.17-.26-.38-.06,0,0-.62.46-.62.58V6a.3.3,0,0,0,.17.26l.38.19A.31.31,0,0,0,14,6.32.27.27,0,0,0,14,6.2Z" class="cls-5"></path><rect rx="0.5" height="10" width="8" y="8" x="6" class="cls-6"></rect><path d="M6,12a2.49,2.49,0,0,0,2.34,2.63h.3a3.72,3.72,0,0,0,.57-.08.46.46,0,0,1,.46.12l2.14,2.14a1.24,1.24,0,0,0,.88.33,1.42,1.42,0,0,0,.91-.41,1.38,1.38,0,0,0,.4-.9,1.14,1.14,0,0,0-.33-.88L11.52,12.8a.49.49,0,0,1-.12-.45,2.24,2.24,0,0,0,.08-.57A2.47,2.47,0,0,0,9.19,9.14h-.3a2.25,2.25,0,0,0-.58.08H8.16a.27.27,0,0,0-.25.29A.31.31,0,0,0,8,9.69l.1.11L9.35,11a.91.91,0,0,1,.26.68,1.11,1.11,0,0,1-.32.7,1,1,0,0,1-.7.31.94.94,0,0,1-.68-.25L6.59,11.13a.27.27,0,0,0-.38,0,.26.26,0,0,0,0,.09v.15A2.46,2.46,0,0,0,6,12Z" class="cls-7"></path><path d="M13.59,1A1.41,1.41,0,0,1,15,2.3h0V3h.54a.43.43,0,0,1,.46.34V6.66h0a.43.43,0,0,1-.46.33h-1a.48.48,0,0,1,.5.46h0V12h.54a.46.46,0,0,1,.46.42v4.16h0a.46.46,0,0,1-.46.42H15v1.47a.63.63,0,0,1-.7.53H5.7a.63.63,0,0,1-.7-.53V17H4.46A.46.46,0,0,1,4,16.58V12.42H4A.46.46,0,0,1,4.46,12H5V7.46A.48.48,0,0,1,5.5,7h-1A.43.43,0,0,1,4,6.66V3.34H4A.43.43,0,0,1,4.46,3H5V2.34H5A1.41,1.41,0,0,1,6.41,1h7.18m0-1H6.41A2.43,2.43,0,0,0,4,2.06,1.35,1.35,0,0,0,3,3.22V6.77A1.35,1.35,0,0,0,4,7.93v3.14a1.47,1.47,0,0,0-1,1.26v4.33a1.47,1.47,0,0,0,1,1.27v.54A1.61,1.61,0,0,0,5.69,20H14.3A1.61,1.61,0,0,0,16,18.48h0v-.54a1.47,1.47,0,0,0,1-1.26V12.34a1.47,1.47,0,0,0-1-1.27V7.93a1.37,1.37,0,0,0,1-1.15V3.23a1.37,1.37,0,0,0-1-1.17A2.43,2.43,0,0,0,13.59,0Z"></path></svg>