<svg id="卡车_拷贝" data-name="卡车 拷贝" xmlns="http://www.w3.org/2000/svg" xmlns:xlink="http://www.w3.org/1999/xlink" viewBox="0 0 20 20"><defs><style>.cls-1,.cls-10,.cls-12,.cls-8,.cls-9{fill-rule:evenodd;}.cls-2{fill:#c12323;}.cls-3{fill:#e21717;}.cls-4{fill:#a51c1c;opacity:0.58;}.cls-12,.cls-4,.cls-8{isolation:isolate;}.cls-5{fill:#2f3343;}.cls-6{fill:url(#未命名的渐变_3);}.cls-7{fill:#bf2828;}.cls-8{fill:#511010;opacity:0.26;}.cls-9{fill:#f33;}.cls-10{fill:#ff7676;}.cls-11{fill:#f25757;}.cls-12{fill:#fff;opacity:0.5;}.cls-13{fill:#3f3935;}.cls-14{fill:#5b514c;}.cls-15{fill:#af850e;}.cls-16{fill:#edd69d;}</style><linearGradient id="未命名的渐变_3" x1="10" y1="1113" x2="10" y2="1101" gradientTransform="translate(0 -1094)" gradientUnits="userSpaceOnUse"><stop offset="0" stop-color="#e6573a"/><stop offset="1" stop-color="#c52020"/></linearGradient></defs><title>超速车辆满载</title><path class="cls-1" d="M4,20V17.92a1.44,1.44,0,0,1-1-1.34V12.42a1.44,1.44,0,0,1,1-1.34V9.92A1.44,1.44,0,0,1,3,8.58V4.42A1.44,1.44,0,0,1,4,3.07,1.29,1.29,0,0,1,5,2V1.5A1.5,1.5,0,0,1,6.5,0h7A1.5,1.5,0,0,1,15,1.5V2a1.28,1.28,0,0,1,1,1,1.44,1.44,0,0,1,1,1.35V8.58a1.44,1.44,0,0,1-1,1.34v1.16a1.44,1.44,0,0,1,1,1.34v4.16a1.44,1.44,0,0,1-1,1.34V20Z"/><path id="圆角矩形_770_拷贝" data-name="圆角矩形 770 拷贝" class="cls-2" d="M6.5,1h7a.5.5,0,0,1,.5.5v4a.5.5,0,0,1-.5.5h-7A.5.5,0,0,1,6,5.5v-4A.5.5,0,0,1,6.5,1Z"/><rect id="圆角矩形_770" data-name="圆角矩形 770" class="cls-3" x="8" y="1" width="4" height="4" rx="0.5"/><path id="圆角矩形_770_拷贝_2" data-name="圆角矩形 770 拷贝 2" class="cls-4" d="M6.63,2h6.75a.57.57,0,0,1,.62.5v3a.57.57,0,0,1-.62.5H6.63A.57.57,0,0,1,6,5.5v-3A.57.57,0,0,1,6.63,2Z"/><path class="cls-5" d="M5.5,4h-1a.46.46,0,0,0-.5.42H4V8.58A.46.46,0,0,0,4.5,9h1A.46.46,0,0,0,6,8.58H6V4.42A.46.46,0,0,0,5.5,4Z"/><path class="cls-5" d="M15.5,4h-1a.46.46,0,0,0-.5.42h0V8.58a.46.46,0,0,0,.5.42h1a.46.46,0,0,0,.5-.42h0V4.42A.46.46,0,0,0,15.5,4Z"/><path class="cls-5" d="M15.5,12h-1a.46.46,0,0,0-.5.42h0v4.16a.46.46,0,0,0,.5.42h1a.46.46,0,0,0,.5-.42h0V12.42a.46.46,0,0,0-.5-.42Z"/><path class="cls-5" d="M5.5,12h-1a.46.46,0,0,0-.5.42H4v4.16a.46.46,0,0,0,.5.42h1a.46.46,0,0,0,.5-.42H6V12.42A.46.46,0,0,0,5.5,12Z"/><rect id="矩形_765" data-name="矩形 765" class="cls-6" x="6" y="7" width="8" height="12"/><rect id="矩形_765_拷贝" data-name="矩形 765 拷贝" class="cls-7" x="6" y="7" width="8" height="3"/><path id="矩形_777_拷贝" data-name="矩形 777 拷贝" class="cls-8" d="M14,19l-2-9,1-3h2V19ZM6,19l2-9L7,7H5V19Z"/><path id="矩形_768_拷贝" data-name="矩形 768 拷贝" class="cls-9" d="M5,6H6V19H5Zm9,0h1V19H14Z"/><path id="矩形_787_拷贝" data-name="矩形 787 拷贝" class="cls-10" d="M5,10H6v6H5Zm9,0h1v6H14Z"/><path id="矩形_765_拷贝_2" data-name="矩形 765 拷贝 2" class="cls-11" d="M5.3,3h9.4a.29.29,0,0,1,.3.28v0h0V7H5V3.3A.29.29,0,0,1,5.28,3Z"/><path class="cls-12" d="M5.3,3a.29.29,0,0,0-.3.28V7H6V4h8V7h1V3.3a.29.29,0,0,0-.28-.3H5.3Z"/><polygon class="cls-13" points="14 18 13 17.91 11 19 9 17.91 8 18 7 17.91 6 19 6 7 7 8.09 8 8.09 9 7 11 7 12 8.09 14 7 14 18"/><polygon class="cls-14" points="13 17 12.25 16.18 10.75 17 9.25 16.18 8.88 17 7.75 16.18 7 17 7 8 7.75 8.82 8.5 8.82 9.25 8 10.75 8 11.5 8.82 13 8 13 17"/><rect class="cls-15" x="9" y="10" width="1" height="1" rx="0.2"/><rect class="cls-15" x="11" y="14" width="1" height="1" rx="0.2"/><rect class="cls-15" x="12" y="11" width="1" height="1" rx="0.2"/><rect class="cls-16" x="10" y="12" width="1" height="1" rx="0.2"/><rect class="cls-16" x="12" y="16" width="1" height="1" rx="0.2"/><rect class="cls-16" x="7" y="15" width="1" height="1" rx="0.2"/><rect class="cls-16" x="6" y="11" width="1" height="1" rx="0.2"/><rect class="cls-13" x="8" y="13" width="1" height="1" rx="0.2"/><rect class="cls-13" x="9" y="15" width="1" height="1" rx="0.2"/><rect class="cls-13" x="11" y="9" width="1" height="1" rx="0.2"/><rect class="cls-13" x="7" y="9" width="1" height="1" rx="0.2"/><rect class="cls-13" x="9" y="8" width="1" height="1" rx="0.2"/></svg>