<svg viewBox="0 0 20 20" xmlns:xlink="http://www.w3.org/1999/xlink" xmlns="http://www.w3.org/2000/svg" id="组_2"><defs><style>.cls-1{fill:#08090a;}.cls-2{fill:#aaa;}.cls-10,.cls-3{fill:#e2e2e2;}.cls-10,.cls-4,.cls-9{fill-rule:evenodd;}.cls-4{fill:url(#未命名的渐变_3);}.cls-5{fill:none;}.cls-6{fill:url(#未命名的渐变_64);}.cls-7{fill:url(#未命名的渐变_64-2);}.cls-8{fill:url(#未命名的渐变_64-3);}.cls-11{fill:#565656;}.cls-12{fill:#d8d8d8;}.cls-13{fill:#a8a8a8;}</style><linearGradient gradientUnits="userSpaceOnUse" y2="9.5" x2="-5.5" y1="9.5" x1="-6" id="未命名的渐变_3"><stop stop-color="#9e9e9e" offset="0"></stop><stop stop-color="#575757" offset="1"></stop></linearGradient><linearGradient gradientUnits="userSpaceOnUse" y2="13" x2="18" y1="4" x1="18" id="未命名的渐变_64"><stop stop-color="#93aabd" offset="0"></stop><stop stop-color="#556073" offset="1"></stop></linearGradient><linearGradient xlink:href="#未命名的渐变_64" y2="13" x2="10" y1="4" x1="10" id="未命名的渐变_64-2"></linearGradient><linearGradient xlink:href="#未命名的渐变_64" y2="13" x2="2" y1="4" x1="2" id="未命名的渐变_64-3"></linearGradient></defs><title>破碎胶运离线</title><polygon points="13 16 13 11 7 11 7 16 0 16 0 0 8 0 8 3 12 3 12 0 20 0 20 16 13 16" class="cls-1"></polygon><rect rx="0.2" height="1" width="1" y="11" x="10" class="cls-2"></rect><rect rx="0.2" height="1" width="1" y="11" x="8" class="cls-3"></rect><polygon points="1 4 1 15 6 15 6 10 14 10 14 15 19 15 19 4 1 4" class="cls-4"></polygon><polygon points="2 6.08 18 6.08 18 6.08 2 6.08 2 6.08" class="cls-5"></polygon><polygon points="18 6.08 18 6.08 18 6.08 18 6.08" class="cls-6"></polygon><rect height="2.08" width="14" y="4" x="3" class="cls-7"></rect><polygon points="2 6.08 2 6.08 2 6.08 2 6.08" class="cls-8"></polygon><polygon points="6.76 11.54 2.5 6.3 2.5 4 17.5 4 17.5 6.3 13.24 11.54 6.76 11.54" class="cls-9"></polygon><path d="M3,4H17V6.08H3Z" class="cls-10" id="矩形_1193"></path><rect height="3" width="6" y="1" x="1" class="cls-1" id="矩形_1195"></rect><rect rx="0.2" height="1" width="1" y="12" x="9" class="cls-2"></rect><rect rx="0.2" height="1" width="1" y="16" x="11" class="cls-2"></rect><rect rx="0.2" height="1" width="1" y="14" x="12" class="cls-2"></rect><rect rx="0.2" height="1" width="1" y="14" x="10" class="cls-3"></rect><rect rx="0.2" height="1" width="1" y="13" x="12" class="cls-3"></rect><rect rx="0.2" height="1" width="1" y="13" x="8" class="cls-3"></rect><rect rx="0.2" height="1" width="1" y="16" x="9" class="cls-3"></rect><rect rx="0.2" height="1" width="1" y="12" x="7" class="cls-11"></rect><rect rx="0.2" height="1" width="1" y="16" x="7" class="cls-11"></rect><rect rx="0.2" height="1" width="1" y="15" x="10" class="cls-11"></rect><rect rx="0.2" height="1" width="1" y="12" x="11" class="cls-11"></rect><rect rx="0.2" height="1" width="1" y="16" x="12" class="cls-11"></rect><rect rx="0.2" height="1" width="1" y="15" x="8" class="cls-11"></rect><polygon points="1 4 1.64 4 1 3.36 1 4" class="cls-12"></polygon><polygon points="1 1 1 1.64 3.36 4 4.64 4 1.64 1 1 1" class="cls-12"></polygon><polygon points="4.64 1 3.36 1 6.36 4 7 4 7 3.36 4.64 1" class="cls-12"></polygon><polygon points="7 1 6.36 1 7 1.64 7 1" class="cls-12"></polygon><rect height="3" width="6" y="1" x="13" class="cls-1" id="矩形_1195-2"></rect><polygon points="13 4 13.64 4 13 3.36 13 4" class="cls-12"></polygon><polygon points="13 1 13 1.64 15.36 4 16.64 4 13.64 1 13 1" class="cls-12"></polygon><polygon points="16.64 1 15.36 1 18.36 4 19 4 19 3.36 16.64 1" class="cls-12"></polygon><polygon points="19 1 18.36 1 19 1.64 19 1" class="cls-12"></polygon><rect rx="1.5" height="3" width="20" y="17" class="cls-1"></rect><rect rx="0.5" height="1" width="18" y="18" x="1" class="cls-3"></rect><circle r="0.5" cy="18.5" cx="2.5" class="cls-13"></circle><circle r="0.5" cy="18.5" cx="4.5" class="cls-13"></circle><circle r="0.5" cy="18.5" cx="6.5" class="cls-13"></circle><circle r="0.5" cy="18.5" cx="8.5" class="cls-13"></circle><circle r="0.5" cy="18.5" cx="10.5" class="cls-13"></circle><circle r="0.5" cy="18.5" cx="12.5" class="cls-13"></circle><circle r="0.5" cy="18.5" cx="14.5" class="cls-13"></circle><circle r="0.5" cy="18.5" cx="16.5" class="cls-13"></circle><circle r="0.5" cy="18.5" cx="18.5" class="cls-13"></circle><polygon points="7 11 13 11 17 6.08 3 6.08 7 11" class="cls-13"></polygon></svg>