<svg viewBox="0 0 12 12" xmlns:xlink="http://www.w3.org/1999/xlink" xmlns="http://www.w3.org/2000/svg" id="卡车_拷贝"><defs><style>.cls-1{fill:url(#未命名的渐变_14);}</style><linearGradient gradientUnits="userSpaceOnUse" y2="0.5" x2="5.5" y1="10.5" x1="5.5" id="未命名的渐变_14"><stop stop-color="#f50" offset="0"></stop><stop stop-color="#fc0" offset="1"></stop></linearGradient></defs><title>人工</title><circle r="5" cy="5.5" cx="5.5" class="cls-1"></circle><path d="M5.5,0A5.5,5.5,0,1,0,11,5.5,5.5,5.5,0,0,0,5.5,0Zm0,1.22A4.26,4.26,0,0,1,9.72,4.93L7.09,4.3a2,2,0,0,0-3.18,0l-2.63.63A4.26,4.26,0,0,1,5.5,1.22Zm0,5a.67.67,0,1,1,.67-.67A.67.67,0,0,1,5.5,6.17Zm-4.22-.1L4,6.78,4.22,7l.71,2.69A4.24,4.24,0,0,1,1.28,6.07ZM6.07,9.72,6.78,7,7,6.78l2.69-.71A4.24,4.24,0,0,1,6.07,9.72Z"></path></svg>