<svg xmlns="http://www.w3.org/2000/svg" width="16" height="16" viewBox="0 0 16 16">
  <defs>
    <style>
      .cls-1 {
        fill: #ff4545;
        fill-rule: evenodd;
      }
    </style>
  </defs>
  <path id="重复故障" class="cls-1" d="M9188.97,730.013c-0.22,0-.45-0.013-0.67-0.035l-0.14-.021c-0.17-.02-0.27-0.032-0.37-0.051,0,0-.25-0.056-0.31-0.072-0.2-.049-0.33-0.082-0.46-0.121l-0.13-.045c-0.23-.079-0.37-0.133-0.52-0.194l-0.12-.058a6.6,6.6,0,0,1-2.05-1.454c-0.17-.185-0.3-0.328-0.42-0.484l-0.1-.123c-0.12-.155-0.18-0.242-0.24-0.332a7.246,7.246,0,0,1-1.22-3.868h-1.1l-0.12-.122a0.232,0.232,0,0,1,.01-0.241l2-3.113,0.15-.041a0.219,0.219,0,0,1,.19.113l2,3.117-0.04.165a0.214,0.214,0,0,1-.2.122h-1.01a5.183,5.183,0,0,0,1.06,3.011,5.059,5.059,0,0,0,1.47,1.29c0.14,0.075.26,0.137,0.39,0.193s0.26,0.111.4,0.159l0.14,0.047c0.09,0.029.19,0.055,0.29,0.078l0.18,0.045c0.09,0.017.18,0.031,0.27,0.043l0.2,0.027c0.16,0.016.32,0.024,0.47,0.024a4.637,4.637,0,0,0,2.77-.913,0.931,0.931,0,0,1,.55-0.178,0.788,0.788,0,0,1,.16.015,0.925,0.925,0,0,1,.61.4,0.992,0.992,0,0,1-.23,1.342,6.481,6.481,0,0,1-3.86,1.272h0Zm5.71-3.637-0.12-.11-1.99-3.116,0.03-.164a0.236,0.236,0,0,1,.21-0.125h1.01a5.153,5.153,0,0,0-1.11-3.063,4.919,4.919,0,0,0-1.84-1.443c-0.15-.069-0.28-0.114-0.4-0.156l-0.11-.039c-0.1-.031-0.21-0.058-0.32-0.085l-0.15-.035c-0.11-.023-0.22-0.04-0.34-0.053l-0.14-.02a4.569,4.569,0,0,0-.46-0.023,4.688,4.688,0,0,0-2.78.913,0.9,0.9,0,0,1-.54.179,0.789,0.789,0,0,1-.16-0.016,0.926,0.926,0,0,1-.61-0.4,1,1,0,0,1,.23-1.345,6.462,6.462,0,0,1,3.85-1.269l0.11,0c0.18,0,.36.012,0.54,0.028l0.33,0.043c0.07,0.008.14,0.016,0.21,0.029l0.29,0.067c0.2,0.048.35,0.087,0.49,0.129l0.12,0.041c0.21,0.075.37,0.135,0.53,0.2a6.88,6.88,0,0,1,2.59,2.007c0.14,0.173.24,0.3,0.33,0.439a7.279,7.279,0,0,1,1.22,3.869h0.93l0.15-.035a0.252,0.252,0,0,1,.23.275,0.243,0.243,0,0,1-.14.168l-1.96,3.068-0.15.039h-0.08ZM9189,719a1,1,0,0,1,1,1v3a1,1,0,0,1-2,0v-3A1,1,0,0,1,9189,719Zm0,6a1,1,0,1,1-1,1A1,1,0,0,1,9189,725Z" transform="translate(-9181 -715)"/>
</svg>
