<svg viewBox="0 0 20 20" xmlns:xlink="http://www.w3.org/1999/xlink" xmlns="http://www.w3.org/2000/svg" id="组_7"><defs><style>.cls-1{fill:#e8ebef;}.cls-2{fill:url(#未命名的渐变_25);}.cls-3{fill:url(#未命名的渐变_16);}.cls-4{fill:#333949;}.cls-4,.cls-5,.cls-6{fill-rule:evenodd;}.cls-5,.cls-8{fill:#fff;}.cls-6{fill:#2b5faa;}.cls-7{fill:#d5dae3;}.cls-9{fill:#00dc94;}</style><linearGradient gradientUnits="userSpaceOnUse" y2="6" x2="10.5" y1="6" x1="7.5" id="未命名的渐变_25"><stop stop-color="#8e96a3" offset="0"></stop><stop stop-color="#b3b8c1" offset="1"></stop></linearGradient><linearGradient gradientUnits="userSpaceOnUse" y2="11.5" x2="9.03" y1="19.5" x1="9.03" id="未命名的渐变_16"><stop stop-color="#474d63" offset="0"></stop><stop stop-color="#94a5b5" offset="1"></stop></linearGradient></defs><title>rsu1</title><rect height="2" width="15" y="2.5" x="1.5" class="cls-1"></rect><path d="M16,3V4H2V3H16m.5-1H1.5a.51.51,0,0,0-.5.5v2a.51.51,0,0,0,.5.5h15a.51.51,0,0,0,.5-.5v-2a.51.51,0,0,0-.5-.5Z"></path><g id="矩形_1"><rect height="11" width="3" y="0.5" x="7.5" class="cls-2"></rect><path d="M10,1V11H8V1h2m.5-1h-3A.5.5,0,0,0,7,.5v11a.5.5,0,0,0,.5.5h3a.5.5,0,0,0,.5-.5V.5a.5.5,0,0,0-.5-.5Z"></path></g><g id="圆角矩形_1"><rect height="8" width="11" y="11.5" x="3.53" class="cls-3"></rect><path d="M14,12v7H4V12H14m.5-1h-11a.5.5,0,0,0-.5.5v8a.5.5,0,0,0,.5.5h11a.5.5,0,0,0,.5-.5v-8a.5.5,0,0,0-.5-.5Z"></path></g><path d="M6.5,14h5a.5.5,0,0,1,0,1h-5a.5.5,0,0,1,0-1Zm0,2h5a.5.5,0,0,1,0,1h-5a.5.5,0,0,1,0-1Z" class="cls-4" id="矩形_1_拷贝_5"></path><path d="M3,6.5A2.5,2.5,0,0,1,.5,4V3a2.5,2.5,0,0,1,5,0V4A2.5,2.5,0,0,1,3,6.5Z" class="cls-5"></path><path d="M3,1A2,2,0,0,1,5,3V4A2,2,0,0,1,1,4V3A2,2,0,0,1,3,1M3,0A3,3,0,0,0,0,3V4A3,3,0,0,0,6,4V3A3,3,0,0,0,3,0Z"></path><path d="M3,6.5a2.5,2.5,0,0,1-2.45-2h4.9A2.5,2.5,0,0,1,3,6.5Z" class="cls-6"></path><path d="M4.73,5A2,2,0,0,1,1.27,5H4.73M6,4H0A3,3,0,0,0,6,4Z"></path><rect height="4" width="5" y="0.5" x="12.5" class="cls-7"></rect><path d="M17,1V4H13V1h4m.5-1h-5a.51.51,0,0,0-.5.5v4a.51.51,0,0,0,.5.5h5a.51.51,0,0,0,.5-.5V.5a.51.51,0,0,0-.5-.5Z"></path><rect height="3" width="2" y="4.5" x="12.5" class="cls-8"></rect><path d="M14,5V7H13V5h1m.5-1h-2a.51.51,0,0,0-.5.5v3a.51.51,0,0,0,.5.5h2a.51.51,0,0,0,.5-.5v-3a.51.51,0,0,0-.5-.5Z"></path><rect height="3" width="2" y="4.5" x="15.5" class="cls-8"></rect><path d="M17,5V7H16V5h1m.5-1h-2a.51.51,0,0,0-.5.5v3a.51.51,0,0,0,.5.5h2a.51.51,0,0,0,.5-.5v-3a.51.51,0,0,0-.5-.5Z"></path><path d="M18.24,10A.29.29,0,0,1,18,9.77,1,1,0,0,0,17,9H15a1,1,0,0,0-1,.77.28.28,0,0,1-.26.23A1.76,1.76,0,0,0,12,11.76v6.48A1.76,1.76,0,0,0,13.76,20h4.48A1.76,1.76,0,0,0,20,18.24h0V11.76A1.76,1.76,0,0,0,18.24,10Z"></path><path d="M18,11H17V10H15v1H14a1,1,0,0,0-1,1v6a1,1,0,0,0,1,1h4a1,1,0,0,0,1-1V12A1,1,0,0,0,18,11Z" class="cls-8"></path><path d="M14,12h4v6H14Z"></path><path d="M15,13h2v4H15Z" class="cls-9"></path></svg>