<svg id="组_3" data-name="组 3" xmlns="http://www.w3.org/2000/svg" xmlns:xlink="http://www.w3.org/1999/xlink" viewBox="0 0 20 20"><defs><style>.cls-1,.cls-5,.cls-9{fill-rule:evenodd;}.cls-2{fill:url(#未命名的渐变_36);}.cls-3{fill:#49525a;}.cls-4{fill:#3d76aa;}.cls-5{fill:url(#未命名的渐变_47);}.cls-6{fill:#84919d;opacity:0.56;}.cls-7{fill:url(#未命名的渐变_60);}.cls-8{fill:url(#未命名的渐变_60-2);}.cls-9{fill:#fff;opacity:0.35;}</style><linearGradient id="未命名的渐变_36" x1="7.5" y1="4" x2="7.5" y2="11" gradientUnits="userSpaceOnUse"><stop offset="0" stop-color="#cadced"/><stop offset="1" stop-color="#777f87"/></linearGradient><linearGradient id="未命名的渐变_47" x1="10" y1="4" x2="10" y2="9" gradientUnits="userSpaceOnUse"><stop offset="0" stop-color="#d5e5f5"/><stop offset="1" stop-color="#c2cddb"/></linearGradient><linearGradient id="未命名的渐变_60" x1="8.5" y1="13" x2="8.5" y2="11" gradientUnits="userSpaceOnUse"><stop offset="0" stop-color="#5d666e"/><stop offset="1" stop-color="#2c343d"/></linearGradient><linearGradient id="未命名的渐变_60-2" x1="7" y1="14.5" x2="10" y2="14.5" xlink:href="#未命名的渐变_60"/></defs><title>摄像头</title><path class="cls-1" d="M7,17a1,1,0,0,1-1-1V13.41L4.59,12H2.5A1.5,1.5,0,0,1,1,10.5V9.91A1.5,1.5,0,0,1,0,8.5v-4A1.5,1.5,0,0,1,1.5,3H19a1,1,0,0,1,.92.62,1,1,0,0,1-.21,1.09l-1,1a1,1,0,0,1-.47.26L17,6.28V10.5A1.5,1.5,0,0,1,15.5,12H12.41L11,13.41V16a1,1,0,0,1-1,1Z"/><path id="圆角矩形_1" data-name="圆角矩形 1" class="cls-2" d="M2,4H13v7H2.5a.5.5,0,0,1-.5-.5V4Z"/><path id="矩形_796" data-name="矩形 796" class="cls-3" d="M13,4h3v6.5a.5.5,0,0,1-.5.5H13V4Z"/><path id="矩形_798" data-name="矩形 798" class="cls-4" d="M16,6v.8h0V10h0a.92.92,0,0,1-1-.8V6.8A.92.92,0,0,1,16,6Z"/><path id="矩形_795" data-name="矩形 795" class="cls-5" d="M1,4.5A.5.5,0,0,1,1.5,4H19L18,5h0l-2.9.72A2.93,2.93,0,0,0,13.37,7L12.15,8.78a.5.5,0,0,1-.42.22H1.5A.5.5,0,0,1,1,8.5Z"/><rect id="矩形_797" data-name="矩形 797" class="cls-6" x="2" y="6" width="9" height="1"/><polygon class="cls-7" points="10 13 7 13 5 11 12 11 10 13"/><rect class="cls-8" x="7" y="13" width="3" height="3"/><path class="cls-9" d="M1,4.5A.5.5,0,0,1,1.5,4H19L18,5H1Z"/></svg>