<svg id="组_1" data-name="组 1" xmlns="http://www.w3.org/2000/svg" xmlns:xlink="http://www.w3.org/1999/xlink" viewBox="0 0 20 20"><defs><style>.cls-1{fill:none;}.cls-2{fill:#ffe000;}.cls-3{clip-path:url(#clip-path);}</style><clipPath id="clip-path"><rect id="SVGID" class="cls-1" x="4" y="4" width="12" height="12"/></clipPath></defs><title>施工</title><polygon class="cls-2" points="4.41 18 2 15.59 2 4.41 4.41 2 15.59 2 18 4.41 18 15.59 15.59 18 4.41 18"/><path d="M15.17,3,17,4.83V15.17L15.17,17H4.83L3,15.17V4.83L4.83,3H15.17M16,1H4L1,4V16l3,3H16l3-3V4L16,1Z"/><g class="cls-3"><path d="M15.51,12.11,13,9.61l-1.27,1.27L8.16,7.31a1.81,1.81,0,0,0-.35-2L6.54,4,4,6.54,5.27,7.81a1.79,1.79,0,0,0,2,.34l3.57,3.57L9.61,13l2.51,2.5c.93.93,2.81.28,3.18.14l.25-.1.1-.25c.13-.36.79-2.24-.14-3.17ZM7,7a.6.6,0,0,1-.84,0l-.43-.43.85-.84L7,6.12A.59.59,0,0,1,7,7Zm7.65,7.63"/></g></svg>