<svg viewBox="0 0 20 20" xmlns:xlink="http://www.w3.org/1999/xlink" xmlns="http://www.w3.org/2000/svg" id="组_1"><defs><style>.cls-1,.cls-2,.cls-3,.cls-4{fill-rule:evenodd;}.cls-2{fill:#484d5f;}.cls-3{fill:#616882;}.cls-4{fill:url(#未命名的渐变_7);}.cls-5{fill:#6e7387;}.cls-6{fill:#5a6372;}.cls-7{fill:#3a3e49;}.cls-8{fill:#49525e;}.cls-9{fill:url(#未命名的渐变_7-2);}.cls-10{fill:url(#未命名的渐变_9);}.cls-11{fill:#4d5360;}</style><linearGradient gradientUnits="userSpaceOnUse" gradientTransform="matrix(1, 0, 0, -1, 0, 22)" y2="3.99" x2="9.5" y1="12" x1="9.5" id="未命名的渐变_7"><stop stop-color="#e8e8e8" offset="0"></stop><stop stop-color="#c7c7c7" offset="1"></stop></linearGradient><linearGradient xlink:href="#未命名的渐变_7" y2="12" x2="11.5" y1="8" x1="11.5" id="未命名的渐变_7-2"></linearGradient><linearGradient gradientUnits="userSpaceOnUse" gradientTransform="matrix(1, 0, 0, -1, 0, 22)" y2="11.25" x2="11.5" y1="9" x1="11.5" id="未命名的渐变_9"><stop stop-color="#f7f7f7" offset="0"></stop><stop stop-color="#f0f0f0" offset="1"></stop></linearGradient></defs><title>电铲离线</title><path d="M11.2,20a1.15,1.15,0,0,1-.7-.23,1.15,1.15,0,0,1-.7.23H9.2a1.15,1.15,0,0,1-.7-.23,1.15,1.15,0,0,1-.7.23H7.2A1.19,1.19,0,0,1,6,19H5.5A1.43,1.43,0,0,1,4,17.74H4V11.35a1.41,1.41,0,0,1,1.07-1.3l0-.09a1.41,1.41,0,0,1,.73-.82A1.43,1.43,0,0,1,6.44,9H7V1.2A1.18,1.18,0,0,1,8.15,0h2.7A1.18,1.18,0,0,1,12,1.2V9h.8A1.19,1.19,0,0,1,14,10.07a1.39,1.39,0,0,1,1,1.19h0v6.39A1.44,1.44,0,0,1,13.53,19H13a1.19,1.19,0,0,1-1.18,1Z" class="cls-1"></path><path d="M5.5,11h2a.45.45,0,0,1,.5.34H8v6.3a.44.44,0,0,1-.49.35h-2a.45.45,0,0,1-.5-.34H5v-6.3A.44.44,0,0,1,5.49,11Zm6,0h2a.45.45,0,0,1,.5.34h0v6.3a.44.44,0,0,1-.49.35h-2a.45.45,0,0,1-.5-.34h0v-6.3a.44.44,0,0,1,.49-.35Z" class="cls-2" id="矩形_795"></path><path d="M11,16h3v1H11Zm0-2h3v1H11Zm0-2h3v1H11ZM5,16H8v1H5Zm0-2H8v1H5Zm0-2H8v1H5Z" class="cls-3" id="矩形_1199"></path><path d="M13,10.5v7a.47.47,0,0,1-.44.5H6.44A.47.47,0,0,1,6,17.5v-7a.47.47,0,0,1,.44-.5h6.12A.47.47,0,0,1,13,10.5Z" class="cls-4" id="矩形_786"></path><path d="M8.15,1h2.7c.08,0,.15.09.15.2V4.8c0,.11-.07.2-.15.2H8.15C8.07,5,8,4.91,8,4.8V1.2C8,1.09,8.07,1,8.15,1Z" class="cls-5" id="矩形_792"></path><path d="M8.15,1h2.7c.08,0,.15.09.15.2V3H8V1.2C8,1.09,8.07,1,8.15,1Z" class="cls-6" id="矩形_797"></path><rect height="4" width="3" y="13" x="8" class="cls-7"></rect><rect height="5.99" width="0.5" y="4.01" x="8" class="cls-5"></rect><rect height="5.98" width="0.5" y="4.02" x="10.5" class="cls-5"></rect><rect height="9.99" width="0.99" y="1.01" x="9" class="cls-8"></rect><rect height="2" width="3" y="15" x="8" class="cls-5" id="矩形_797-2"></rect><rect height="7" width="0.5" y="10" x="8.5" class="cls-5"></rect><rect height="7" width="0.5" y="10" x="10" class="cls-5"></rect><path d="M12.56,10H6.44a.47.47,0,0,0-.44.5v7a.47.47,0,0,0,.44.5h.44V11h5.24v7h.44a.47.47,0,0,0,.44-.5v-7A.47.47,0,0,0,12.56,10Z" class="cls-6"></path><path d="M10.2,10h2.6a.18.18,0,0,1,.2.16v3.68a.18.18,0,0,1-.2.16H10.2a.18.18,0,0,1-.2-.16V10.16A.18.18,0,0,1,10.2,10Z" class="cls-9" id="矩形_787_拷贝_2"></path><path d="M10.85,10.75h1.3a.09.09,0,0,1,.1.09v2.07a.09.09,0,0,1-.1.09h-1.3a.09.09,0,0,1-.1-.09V10.84A.09.09,0,0,1,10.85,10.75Z" class="cls-10" id="矩形_787_拷贝_2-2"></path><path d="M11,18h1a0,0,0,0,1,0,0v.8a.2.2,0,0,1-.2.2h-.6a.2.2,0,0,1-.2-.2V18A0,0,0,0,1,11,18Z" class="cls-11"></path><path d="M9,18h1a0,0,0,0,1,0,0v.8a.2.2,0,0,1-.2.2H9.2a.2.2,0,0,1-.2-.2V18A0,0,0,0,1,9,18Z" class="cls-11"></path><path d="M7,18H8a0,0,0,0,1,0,0v.8a.2.2,0,0,1-.2.2H7.2a.2.2,0,0,1-.2-.2V18A0,0,0,0,1,7,18Z" class="cls-11"></path></svg>