<svg viewBox="0 0 20 20" xmlns:xlink="http://www.w3.org/1999/xlink" xmlns="http://www.w3.org/2000/svg" id="卡车_拷贝"><defs><style>.cls-1,.cls-10,.cls-12,.cls-8,.cls-9{fill-rule:evenodd;}.cls-2{fill:#c98900;}.cls-3{fill:#e3a014;}.cls-4{fill:#a3730d;opacity:0.58;}.cls-4,.cls-8{isolation:isolate;}.cls-5{fill:#2f3343;}.cls-6{fill:url(#未命名的渐变_29);}.cls-7{fill:#c68700;}.cls-8{fill:#54340f;opacity:0.26;}.cls-9{fill:#ffc033;}.cls-10,.cls-11{fill:#ffda73;}.cls-12{fill:#fff;opacity:0.5;}</style><linearGradient gradientUnits="userSpaceOnUse" gradientTransform="matrix(1, 0, 0, -1, 0, -14)" y2="-21" x2="10" y1="-33" x1="10" id="未命名的渐变_29"><stop stop-color="#ffbf12" offset="0"></stop><stop stop-color="#d68f00" offset="1"></stop></linearGradient></defs><title>卡车</title><path d="M4,20V17.92a1.44,1.44,0,0,1-1-1.34V12.42a1.44,1.44,0,0,1,1-1.34V9.92A1.44,1.44,0,0,1,3,8.58V4.42A1.43,1.43,0,0,1,4,3.07,1.28,1.28,0,0,1,5,2V1.5A1.5,1.5,0,0,1,6.5,0h7A1.5,1.5,0,0,1,15,1.5V2a1.28,1.28,0,0,1,1,1,1.43,1.43,0,0,1,1,1.35V8.58a1.44,1.44,0,0,1-1,1.34v1.16a1.44,1.44,0,0,1,1,1.34v4.16a1.44,1.44,0,0,1-1,1.34V20Z" class="cls-1"></path><path d="M6.5,1h7a.5.5,0,0,1,.5.5v4a.5.5,0,0,1-.5.5h-7A.5.5,0,0,1,6,5.5v-4A.5.5,0,0,1,6.5,1Z" class="cls-2" id="圆角矩形_770_拷贝"></path><rect rx="0.5" height="4" width="4" y="1" x="8" class="cls-3" id="圆角矩形_770"></rect><path d="M6.63,2h6.75a.57.57,0,0,1,.62.5v3a.57.57,0,0,1-.62.5H6.63A.57.57,0,0,1,6,5.5v-3A.57.57,0,0,1,6.63,2Z" class="cls-4" id="圆角矩形_770_拷贝_2"></path><path d="M5.5,4h-1a.46.46,0,0,0-.5.42V8.58A.46.46,0,0,0,4.5,9h1A.46.46,0,0,0,6,8.58V4.42A.46.46,0,0,0,5.5,4Z" class="cls-5"></path><path d="M15.5,4h-1a.46.46,0,0,0-.5.42V8.58a.46.46,0,0,0,.5.42h1a.46.46,0,0,0,.5-.42V4.42A.46.46,0,0,0,15.5,4Z" class="cls-5"></path><path d="M15.5,12h-1a.46.46,0,0,0-.5.42v4.16a.46.46,0,0,0,.5.42h1a.46.46,0,0,0,.5-.42V12.42A.46.46,0,0,0,15.5,12Z" class="cls-5"></path><path d="M5.5,12h-1a.46.46,0,0,0-.5.42v4.16a.46.46,0,0,0,.5.42h1a.46.46,0,0,0,.5-.42V12.42A.46.46,0,0,0,5.5,12Z" class="cls-5"></path><rect height="12" width="8" y="7" x="6" class="cls-6" id="矩形_765"></rect><rect height="3" width="8" y="7" x="6" class="cls-7" id="矩形_765_拷贝"></rect><path d="M14,19l-2-9,1-3h2V19ZM6,19l2-9L7,7H5V19Z" class="cls-8" id="矩形_777_拷贝"></path><path d="M5,6H6V19H5Zm9,0h1V19H14Z" class="cls-9" id="矩形_768_拷贝"></path><path d="M5,10H6v6H5Zm9,0h1v6H14Z" class="cls-10" id="矩形_787_拷贝"></path><path d="M5.3,3h9.4a.29.29,0,0,1,.3.3h0V7H5V3.3A.29.29,0,0,1,5.3,3Z" class="cls-11" id="矩形_765_拷贝_2"></path><path d="M5.3,3a.29.29,0,0,0-.3.3V7H6V4h8V7h1V3.3a.29.29,0,0,0-.3-.3Z" class="cls-12"></path></svg>