<svg viewBox="0 0 20 20" xmlns:xlink="http://www.w3.org/1999/xlink" xmlns="http://www.w3.org/2000/svg" id="组_1"><defs><style>.cls-1,.cls-13,.cls-2,.cls-3,.cls-7,.cls-8{fill-rule:evenodd;}.cls-2,.cls-4{fill:#6d6d6d;}.cls-3,.cls-6{fill:#777;}.cls-5{fill:#939393;}.cls-7{fill:url(#未命名的渐变_25);}.cls-8{fill:url(#未命名的渐变_16);}.cls-9{fill:url(#未命名的渐变_16-2);}.cls-10{fill:#f9f9f9;}.cls-11{fill:#d6d6d6;}.cls-12{fill:#c4c4c4;}.cls-13,.cls-16{fill:#4c4c4c;opacity:0.54;}.cls-14{opacity:0.42;}.cls-15{fill:#fff;}</style><linearGradient gradientUnits="userSpaceOnUse" y2="19" x2="10" y1="8" x1="10" id="未命名的渐变_25"><stop stop-color="#cfcfcf" offset="0"></stop><stop stop-color="#bfbfbf" offset="1"></stop></linearGradient><linearGradient gradientUnits="userSpaceOnUse" y2="10" x2="10" y1="8" x1="10" id="未命名的渐变_16"><stop stop-color="#e6e6e6" offset="0"></stop><stop stop-color="#ccc" offset="1"></stop></linearGradient><linearGradient xlink:href="#未命名的渐变_16" y2="11" x2="10" y1="16" x1="10" id="未命名的渐变_16-2"></linearGradient></defs><title>推土机离线</title><path d="M8.62,20a1.79,1.79,0,0,1-1.54-.89L6.43,18H5.5A1.48,1.48,0,0,1,4,16.55V8.45A1.48,1.48,0,0,1,5.5,7H7V6H5.5A1.5,1.5,0,0,1,4,4.5V0H16V4.5A1.5,1.5,0,0,1,14.5,6H13V7h1.5A1.48,1.48,0,0,1,16,8.45v8.1A1.48,1.48,0,0,1,14.5,18h-.92L13,19.09A1.81,1.81,0,0,1,11.4,20Z" class="cls-1"></path><path d="M5.5,8h2a.47.47,0,0,1,.5.45v8.1a.47.47,0,0,1-.5.45h-2a.47.47,0,0,1-.5-.45V8.45A.47.47,0,0,1,5.5,8Zm7,0h2a.47.47,0,0,1,.5.45v8.1a.47.47,0,0,1-.5.45h-2a.47.47,0,0,1-.5-.45V8.45A.47.47,0,0,1,12.5,8Z" class="cls-2" id="矩形_795"></path><path d="M12,15h3v1H12Zm0-2h3v1H12Zm0-2h3v1H12Zm0-2h3v1H12ZM5,15H8v1H5Zm0-2H8v1H5Zm0-2H8v1H5ZM5,9H8v1H5Z" class="cls-3" id="矩形_1199"></path><path d="M5,1H15V4.5a.5.5,0,0,1-.5.5h-9A.5.5,0,0,1,5,4.5Z" class="cls-4" id="矩形_792"></path><rect height="3" width="10" y="1" x="5" class="cls-5" id="矩形_797"></rect><rect height="1" width="10" y="3" x="5" class="cls-6" id="矩形_797-2"></rect><path d="M12.09,18.6a.78.78,0,0,1-.69.4H8.62a.79.79,0,0,1-.68-.39L7,17V9.33a.79.79,0,0,1,.23-.56l.54-.54A.79.79,0,0,1,8.33,8h3.34a.79.79,0,0,1,.56.23l.54.54a.79.79,0,0,1,.23.56V17Z" class="cls-7"></path><path d="M12.23,8.23A.79.79,0,0,0,11.67,8H8.33a.79.79,0,0,0-.56.23l-.54.54A.79.79,0,0,0,7,9.33V10h6V9.33a.79.79,0,0,0-.23-.56Z" class="cls-8"></path><path d="M7.42,11h5.16a.42.42,0,0,1,.42.42V15.5c0,.28-.45.5-1,.5H8c-.55,0-1-.22-1-.5V11.42A.42.42,0,0,1,7.42,11Z" class="cls-9" id="矩形_787_拷贝_2"></path><rect rx="0.38" height="4" width="6" y="13" x="7" class="cls-10" id="矩形_789"></rect><rect rx="0.2" height="6" width="1" y="4" x="8" class="cls-11"></rect><rect rx="0.2" height="6" width="1" y="4" x="11" class="cls-11"></rect><rect height="1" width="2" y="6" x="9" class="cls-12"></rect><path d="M12.09,18.6,12,18H8l-.06.61a.79.79,0,0,0,.68.39H11.4A.78.78,0,0,0,12.09,18.6Z" class="cls-13"></path><g class="cls-14" id="矩形_789-2"><path d="M12.5,13.5v2.68a.32.32,0,0,1-.32.32H7.82a.32.32,0,0,1-.32-.32V13.82a.32.32,0,0,1,.32-.32H12.5m.12-.5H7.38a.38.38,0,0,0-.38.38v3.24a.38.38,0,0,0,.38.38h5.24a.38.38,0,0,0,.38-.38V13.38a.38.38,0,0,0-.38-.38Z" class="cls-15"></path></g><path d="M8,13v-.7a.31.31,0,0,1,.3-.3h3.4a.31.31,0,0,1,.3.3V13Z" class="cls-16"></path></svg>